<svg data-v-0dd9719b="" version="1.0" xmlns="http://www.w3.org/2000/svg" xmlns:xlink="http://www.w3.org/1999/xlink" width="100%" height="100%" viewBox="0 0 340.000000 250.000000" preserveAspectRatio="xMidYMid meet" color-interpolation-filters="sRGB" style="margin: auto;"> <rect data-v-0dd9719b="" x="0" y="0" width="100%" height="100%" fill="#fff" fill-opacity="1" class="background"></rect> <rect data-v-0dd9719b="" x="0" y="0" width="100%" height="100%" fill="url(#watermark)" fill-opacity="1" class="watermarklayer"></rect> <g data-v-0dd9719b="" fill="#333" class="icon-text-wrapper icon-svg-group iconsvg" transform="translate(49.134559631347656,95.00389671437472)"><g class="iconsvg-imagesvg" transform="translate(0,0)"><g><rect fill="#333" fill-opacity="0" stroke-width="2" x="0" y="0" width="60" height="59.9922010138682" class="image-rect"></rect> <svg x="0" y="0" width="60" height="59.9922010138682" filtersec="colorsb1353850591" class="image-svg-svg primary" style="overflow: visible;"><svg xmlns="http://www.w3.org/2000/svg" viewBox="-0.025064129382371902 0.02431926503777504 99.97372436523438 99.96115112304688"><path d="M92.11 7.56a14.27 14.27 0 0 0-24.36 10.7A17.91 17.91 0 0 1 49.27 35.5a14.42 14.42 0 0 0-13.77 15A17.89 17.89 0 0 1 17 67.72a14.29 14.29 0 1 0 14.9 14.93 17.87 17.87 0 0 1 17.7-18.48h.8a14.23 14.23 0 0 0 7-2.2 13.93 13.93 0 0 0 2.6-2.09 14.23 14.23 0 0 0 4.15-9.45A17.87 17.87 0 0 1 81.86 32h.5a2.8 2.8 0 0 0 .29 0 14.27 14.27 0 0 0 9.46-24.44z" fill="#004e9a"></path><path d="M75.59 43.5a14.22 14.22 0 0 0-4.15 10.7A17.93 17.93 0 0 1 53 71.44a14.28 14.28 0 1 0 14.91 14.9 17.86 17.86 0 0 1 17.65-18.46h.79A14.28 14.28 0 1 0 75.59 43.5zM36.28 4.19a14.22 14.22 0 0 0-4.15 10.7 17.91 17.91 0 0 1-18.48 17.23 14.29 14.29 0 1 0 14.89 14.93 17.87 17.87 0 0 1 17.7-18.48H47A14.28 14.28 0 1 0 36.28 4.19z" fill="#27b4d4"></path><path d="M20.9 20.91a9.91 9.91 0 1 1 0-14 9.9 9.9 0 0 1 0 14zM93.21 93.21a9.91 9.91 0 1 1 0-14 9.9 9.9 0 0 1 0 14z" fill="#004e9a"></path></svg></svg> <!----></g></g> <g transform="translate(67,4.956279754638672)"><g data-gra="path-name" fill-rule="" class="tp-name iconsvg-namesvg" transform="translate(0,0)"><g transform="scale(1)"><g><path d="M20.79-30.85L20.79-30.85Q22.9-31.55 23.12-28.92L23.12-28.92Q23.07-28.48 24.13-28.48L24.13-28.48Q31.38-28.52 38.63-28.43L38.63-28.43Q40.43-28.7 40.52-27.33L40.52-27.33Q39.9-24.65 37.35-25.31L37.35-25.31Q32.34-26.32 22.24-25.4L22.24-25.4Q21.18-25.27 20-23.95L20-23.95Q15.95-19.56 13.67-21.27L13.67-21.27Q11.78-23.12 14.46-24.21L14.46-24.21Q16.22-24.83 17.97-25.97L17.97-25.97Q20.3-27.33 20.39-29.22L20.39-29.22Q20.3-30.23 20.79-30.85ZM6.06-28.96L6.06-28.96Q7.78-30.19 9.36-29.31L9.36-29.31Q10.37-28.21 11.38-27.47L11.38-27.47Q13.32-26.37 12.66-24.87L12.66-24.87Q12.26-24.13 11.16-24.57L11.16-24.57Q8.96-25.62 6.77-25.97L6.77-25.97Q4.04-27.03 6.06-28.96ZM20.26-21.67L20.26-21.67Q21.27-22.72 22.85-22.5L22.85-22.5 31.29-22.15Q34.72-22.19 36.56-21.67L36.56-21.67Q38.8-20.43 37.75-18.46L37.75-18.46 37.31-14.99Q37.13-13.8 38.1-13.71L38.1-13.71 43.07-13.01Q45.26-12.96 44.3-11.34L44.3-11.34Q42.32-8.17 40.17-9.58L40.17-9.58Q38.94-10.15 37.66-10.59L37.66-10.59Q36.52-10.94 36.25-9.62L36.25-9.62 35.42-6.68Q35.11-5.54 36.39-5.36L36.39-5.36Q38.58-5.1 39.38-4.66L39.38-4.66Q41.09-4.09 41.09-2.46L41.09-2.46Q40.56-0.35 38.14-1.19L38.14-1.19Q36.43-1.98 34.94-2.24L34.94-2.24Q33.88-2.46 33.18-1.1L33.18-1.1Q30.81 2.72 28.65 3.25L28.65 3.25Q28.04 3.47 27.25 2.86L27.25 2.86Q25.88 1.89 26.98 0.75L26.98 0.75Q28.48-0.35 29.44-1.63L29.44-1.63Q30.45-3.03 29.14-3.25L29.14-3.25Q26.63-3.56 23.07-3.47L23.07-3.47Q20.39-3.21 17.67-3.12L17.67-3.12Q15.69-3.56 16.04-5.05L16.04-5.05Q16.39-7.21 17.14-10.24L17.14-10.24Q17.45-11.34 16.08-10.94L16.08-10.94Q14.59-10.42 13.1-9.76L13.1-9.76Q11.95-9.45 11.34-9.98L11.34-9.98Q10.24-10.77 11.25-12.57L11.25-12.57Q12.48-14.15 14.28-13.97L14.28-13.97 17.14-14.02Q18.19-14.06 18.54-15.38L18.54-15.38Q19.47-20.04 20.26-21.67ZM25.4-19.6L25.4-19.6 24.52-19.56Q23.25-19.51 22.85-18.9L22.85-18.9Q22.32-18.06 21.67-15.47L21.67-15.47Q21.36-14.33 22.63-14.41L22.63-14.41Q24.3-14.55 26.1-14.55L26.1-14.55Q27.16-14.55 26.59-15.86L26.59-15.86Q26.41-16.61 26.06-17.18L26.06-17.18Q25.53-18.28 26.46-19.34L26.46-19.34Q26.89-19.73 25.4-19.6ZM32.61-19.38L32.61-19.38Q31.2-19.73 29.49-19.73L29.49-19.73Q28.26-19.73 28.56-19.51L28.56-19.51Q29.4-18.9 29.4-18.11L29.4-18.11Q29.18-16.96 28.78-15.69L28.78-15.69Q28.17-14.5 29.36-14.46L29.36-14.46Q31.2-14.41 33.18-14.24L33.18-14.24Q34.1-14.15 34.28-15.6L34.28-15.6Q34.94-18.63 32.61-19.38ZM3.34-18.11L3.34-18.11Q5.49-20.08 7.69-17.8L7.69-17.8Q8.39-17.14 9.45-16.61L9.45-16.61Q10.15-16.17 10.2-15.21L10.2-15.21Q10.11-13.93 8.61-14.24L8.61-14.24Q6.86-14.9 4.22-15.21L4.22-15.21Q1.67-15.95 3.34-18.11ZM25.36-12.08L25.36-12.08Q23.55-12.04 21.71-11.87L21.71-11.87Q20.65-11.73 20.21-10.37L20.21-10.37Q19.82-9.01 19.6-7.51L19.6-7.51Q19.51-6.46 20.7-6.46L20.7-6.46Q22.94-6.5 25.31-6.37L25.31-6.37Q26.32-6.33 26.1-6.55L26.1-6.55Q25.71-6.99 25.53-8.26L25.53-8.26Q25.09-9.14 24.96-10.02L24.96-10.02Q24.87-10.77 25.53-11.51L25.53-11.51Q26.19-12.08 25.36-12.08ZM32.34-11.73L32.34-11.73Q30.23-12 28.13-12.08L28.13-12.08Q26.94-12.08 27.47-11.87L27.47-11.87Q29.27-10.68 28.26-8.96L28.26-8.96Q27.95-7.12 27.51-6.5L27.51-6.5Q27.2-6.24 28.52-6.15L28.52-6.15Q29.71-6.11 30.89-5.93L30.89-5.93Q31.95-5.84 32.43-7.21L32.43-7.21Q33-8.83 33.4-10.46L33.4-10.46Q33.66-11.56 32.34-11.73ZM9.45-7.16L9.45-7.16Q10.99-9.14 12.04-8.31L12.04-8.31Q12.39-7.95 12.04-6.59L12.04-6.59Q11.34-4.92 10.15-3.38L10.15-3.38Q8.75-1.19 7.47 1.01L7.47 1.01Q5.67 2.68 4.04 0.48L4.04 0.48Q3.03-0.83 4.53-2.15L4.53-2.15Q6.64-3.78 9.45-7.16ZM66.27-29.79L66.27-29.79Q69.26-30.72 69.3-26.85L69.3-26.85Q69.04-25.66 68.91-24.48L68.91-24.48Q68.95-24.3 70.27-24.26L70.27-24.26 87.1-23.77Q87.98-23.77 88.2-22.85L88.2-22.85Q88.15-22.19 86.88-20.79L86.88-20.79Q84.81-18.59 82.75-19.69L82.75-19.69Q76.33-21.71 69.96-21.62L69.96-21.62Q68.86-21.62 68.86-20.57L68.86-20.57 68.86-18.72Q68.86-17.53 69.79-17.53L69.79-17.53Q74.71-17.62 79.76-17.4L79.76-17.4Q84.16-17.05 84.86-13.89L84.86-13.89Q84.24-8.83 85.43-5.32L85.43-5.32Q86.22-1.54 84.95 0.53L84.95 0.53Q84.51 1.23 83.54 1.27L83.54 1.27Q82.62 1.27 82.44 0.26L82.44 0.26Q81.61-2.07 81.83-5.41L81.83-5.41Q82.4-9.23 81.56-12.7L81.56-12.7Q81.04-13.84 79.76-14.33L79.76-14.33Q78.35-14.77 74.71-14.85L74.71-14.85Q73.61-14.85 73.83-14.41L73.83-14.41Q74.49-12.61 72.38-11.69L72.38-11.69Q72.11-11.43 71.85-11.29L71.85-11.29Q70.62-10.28 71.67-10.28L71.67-10.28Q73.08-10.33 74.49-10.2L74.49-10.2Q76.07-9.76 76.29-9.4L76.29-9.4Q76.82-7.69 75.1-7.38L75.1-7.38 70.36-7.51Q69.3-7.51 69.17-6.42L69.17-6.42Q69.13-5.32 70.44-5.32L70.44-5.32 77.83-5.32Q79.89-4.88 78.13-3.16L78.13-3.16Q76.99-2.02 75.37-2.29L75.37-2.29Q72.86-2.72 70.22-2.64L70.22-2.64Q69.17-2.64 69.17-1.32L69.17-1.32Q69.21 0.09 68.95 1.89L68.95 1.89Q68.86 3.21 67.76 3.47L67.76 3.47Q66.45 3.38 66.23 1.58L66.23 1.58Q65.92 0.31 66.01-1.45L66.01-1.45Q66.09-2.5 64.78-2.46L64.78-2.46Q62.4-2.2 59.5-1.54L59.5-1.54Q58.62-1.23 57.74-1.98L57.74-1.98Q56.91-3.3 58.36-4.61L58.36-4.61Q58.97-5.05 60.12-5.1L60.12-5.1Q62.58-5.36 65.04-5.27L65.04-5.27Q66.14-5.27 66.14-6.46L66.14-6.46Q66.05-7.47 64.56-7.43L64.56-7.43Q62.58-7.34 60.6-7.08L60.6-7.08Q58.45-6.86 58.1-8.39L58.1-8.39Q57.96-9.36 59.06-9.93L59.06-9.93Q60.51-10.42 62.01-10.33L62.01-10.33Q63.15-10.33 62.05-11.6L62.05-11.6Q59.46-13.8 62.14-14.77L62.14-14.77Q64.51-15.16 65.87-11.34L65.87-11.34Q66.23-10.28 67.02-10.28L67.02-10.28Q67.81-10.24 68.91-11.6L68.91-11.6 70.44-13.89Q71.02-14.81 69.57-14.9L69.57-14.9Q59.46-15.21 55.72-14.11L55.72-14.11Q54.62-13.62 54.4-12.61L54.4-12.61Q53.31-8.83 53.48-1.85L53.48-1.85Q53.75 0.66 51.94 1.23L51.94 1.23Q50.27 1.41 50.01-0.35L50.01-0.35Q49.83-6.24 51.81-14.9L51.81-14.9Q52.34-17.27 55.37-17.36L55.37-17.36Q59.9-17.58 64.56-17.49L64.56-17.49Q65.65-17.49 65.65-18.54L65.65-18.54Q65.79-19.51 65.74-20.48L65.74-20.48Q65.74-21.53 64.42-21.62L64.42-21.62Q58.97-21.8 51.94-20.39L51.94-20.39Q50.14-19.82 48.56-20.13L48.56-20.13Q47.94-20.26 47.55-20.92L47.55-20.92Q47.07-22.54 48.87-23.47L48.87-23.47Q51.06-24.61 53.83-24.35L53.83-24.35 64.47-24.35Q65.74-24.3 65.65-25.71L65.65-25.71Q65.48-27.42 65.65-28.92L65.65-28.92Q65.87-29.4 66.27-29.79ZM111.88-30.32L111.88-30.32Q113.99-31.29 114.92-28.52L114.92-28.52Q116.24-26.5 120.76-23.25L120.76-23.25Q126.3-19.12 133.07-16.17L133.07-16.17Q134.69-16 134.96-15.07L134.96-15.07Q134.96-14.81 134.47-14.19L134.47-14.19Q132.71-13.1 130.47-12.7L130.47-12.7Q129.16-12.3 127.84-13.45L127.84-13.45Q121.77-19.34 115-24.48L115-24.48Q112.15-27.29 108.59-22.5L108.59-22.5Q104.9-19.25 98.04-14.24L98.04-14.24Q96.2-12.96 94.92-12.57L94.92-12.57Q94.09-12.3 92.77-13.58L92.77-13.58Q91.05-15.56 93.82-16.44L93.82-16.44Q101.82-20.57 107.89-25.4L107.89-25.4Q110.17-27.29 110.87-28.78L110.87-28.78Q111.01-29.58 111.88-30.32ZM104.63-16.3L104.63-16.3Q113.07-16.88 120.63-16.22L120.63-16.22Q123.84-16.3 122.87-13.89L122.87-13.89Q121.82-12.39 119.93-13.01L119.93-13.01Q113.95-14.41 105.16-13.01L105.16-13.01Q103.4-12.48 102.35-13.36L102.35-13.36Q101.65-14.46 102.39-15.34L102.39-15.34Q103.14-16.08 104.63-16.3ZM106.26-9.1L106.26-9.1Q117.16-9.71 121.55-8.75L121.55-8.75Q124.94-7.82 123.57-5.32L123.57-5.32Q123.22-4.7 123.05-3.56L123.05-3.56Q122.65-1.45 122.08-0.04L122.08-0.04Q121.16 3.25 118.52 2.86L118.52 2.86Q111.84 1.41 107.45 2.94L107.45 2.94Q106.17 3.43 105.25 2.33L105.25 2.33Q104.59 1.32 104.28-0.75L104.28-0.75 103.14-6.02Q102.39-7.73 103.62-8.57L103.62-8.57Q104.33-9.01 106.26-9.1ZM118.17-6.42L118.17-6.42Q111.45-6.55 107.93-6.11L107.93-6.11Q106.7-5.93 106.7-4.92L106.7-4.92Q106.79-2.72 107.05-1.41L107.05-1.41Q107.58-0.4 109.03-0.4L109.03-0.4Q112.41-0.75 117.91-0.53L117.91-0.53Q118.96-0.66 119.44-1.98L119.44-1.98Q120.28-5.01 119.75-6.11L119.75-6.11Q118.96-6.42 118.17-6.42ZM155.87-30.67L155.87-30.67Q157.41-31.11 158.07-30.63L158.07-30.63Q159.83-29.36 158.77-27.51L158.77-27.51Q158.55-26.54 159.7-26.54L159.7-26.54Q166.29-26.46 175.91-24.92L175.91-24.92Q177.36-24.83 177.41-23.82L177.41-23.82Q175.47-19.86 172.53-21.18L172.53-21.18Q167.08-23.6 160.58-23.91L160.58-23.91Q159.52-23.91 160.71-22.9L160.71-22.9Q165.1-19.6 165.5-17.18L165.5-17.18Q165.59-16.57 165.01-16.08L165.01-16.08Q163.96-15.29 161.15-15.91L161.15-15.91Q155.26-16.7 150.64-15.21L150.64-15.21Q148.49-14.55 148.14-17.18L148.14-17.18Q148.27-18.54 149.68-19.73L149.68-19.73Q151.44-21.05 153.19-22.54L153.19-22.54Q154.64-23.91 153.5-23.91L153.5-23.91Q146.82-23.86 141.37-21.49L141.37-21.49Q140.05-20.79 138.74-21.14L138.74-21.14Q137.9-21.49 137.77-22.54L137.77-22.54Q137.86-24.96 140.76-25.75L140.76-25.75Q144.71-25.75 149.24-26.28L149.24-26.28Q151.92-26.5 154.6-26.54L154.6-26.54Q155.61-26.59 155.43-27.95L155.43-27.95Q154.69-29.93 155.87-30.67ZM158.29-21.36L158.29-21.36Q157.32-21.88 155.92-21.27L155.92-21.27Q154.25-20.13 152.53-18.5L152.53-18.5Q152.49-18.33 153.54-18.46L153.54-18.46Q155.04-18.63 159.04-18.59L159.04-18.59 160.27-18.46Q161.32-18.37 161.24-18.59L161.24-18.59Q160.18-19.91 158.29-21.36ZM150.12-14.06L150.12-14.06Q150.73-14.37 151.57-14.28L151.57-14.28Q157.19-14.11 162.95-14.11L162.95-14.11Q167.12-13.71 165.37-10.46L165.37-10.46Q165.19-9.89 165.23-8.48L165.23-8.48Q165.15-2.81 166.33 1.1L166.33 1.1Q166.64 2.29 165.59 3.47L165.59 3.47Q164.84 4.26 163.78 3.47L163.78 3.47Q162.73 2.24 162.6-0.92L162.6-0.92Q162.51-1.98 161.19-2.11L161.19-2.11Q156.23-2.46 152.01-2.07L152.01-2.07Q150.78-1.93 150.29-1.1L150.29-1.1Q147.66 3.69 144.84 4.13L144.84 4.13Q142.78 3.47 143 1.93L143 1.93Q147.04-1.89 148.1-3.74L148.1-3.74Q149.9-6.64 149.41-10.77L149.41-10.77Q148.89-12.96 150.12-14.06ZM160.53-11.16L160.53-11.16Q157.76-11.29 153.81-11.03L153.81-11.03Q152.71-10.77 152.58-10.2L152.58-10.2Q152.53-9.62 153.85-9.49L153.85-9.49Q157.37-9.4 161.02-9.49L161.02-9.49Q162.29-9.54 162.07-10.24L162.07-10.24Q161.81-10.81 160.53-11.16ZM161.02-6.72L161.02-6.72Q156.49-7.03 153.24-6.64L153.24-6.64Q152.31-6.5 152.09-5.67L152.09-5.67Q151.92-4.92 153.24-4.83L153.24-4.83 161.19-4.92Q162.33-4.97 162.33-5.84L162.33-5.84Q162.33-6.55 161.02-6.72Z" transform="translate(-2.6791229248046875, 30.997146606445312)"></path></g> <!----> <!----> <!----> <!----> <!----> <!----> <!----></g></g> <g data-gra="path-slogan" fill-rule="" class="tp-slogan iconsvg-slogansvg" fill="#333" transform="translate(9.905441284179688,41.12714767456055)"><!----> <!----> <g transform="scale(1, 1)"><g transform="scale(1)"><path d="M2.06-5.06L6.56-5.06L6.56-8.58L7.73-8.58L7.73 0L6.56 0L6.56-3.98L2.06-3.98L2.06 0L0.89 0L0.89-8.58L2.06-8.58L2.06-5.06ZM15.19 0L14.34-2.48L10.88-2.48L9.98 0L8.81 0L12.05-8.58L13.36-8.58L16.45 0L15.19 0ZM12.61-7.31L11.25-3.52L13.92-3.52L12.66-7.31L12.61-7.31ZM17.67-8.58L18.84-8.58L18.84 0L17.67 0L17.67-8.58ZM22.22-8.58L26.53-1.64L26.53-8.58L27.66-8.58L27.66 0L26.34 0L21.98-6.94L21.94-6.94L21.94 0L20.81 0L20.81-8.58L22.22-8.58ZM35.11 0L34.27-2.48L30.80-2.48L29.91 0L28.73 0L31.97-8.58L33.28-8.58L36.38 0L35.11 0ZM32.53-7.31L31.17-3.52L33.84-3.52L32.58-7.31L32.53-7.31ZM38.81-8.58L43.13-1.64L43.13-8.58L44.25-8.58L44.25 0L42.94 0L38.58-6.94L38.53-6.94L38.53 0L37.41 0L37.41-8.58L38.81-8.58ZM48.66-1.92L48.66-2.77L49.73-2.77L49.73-2.16Q49.73-0.75 51.05-0.75L51.05-0.75Q52.41-0.75 52.41-2.25L52.41-2.25L52.41-8.58L53.58-8.58L53.58-2.30Q53.53 0.09 51.09 0.14L51.09 0.14Q48.80 0.09 48.66-1.92L48.66-1.92ZM62.16-4.27L62.16-4.27Q61.97-7.64 59.16-7.83L59.16-7.83Q56.30-7.69 56.16-4.27L56.16-4.27Q56.30-0.94 59.16-0.80L59.16-0.80Q61.97-0.98 62.16-4.27ZM63.33-4.27L63.33-4.27Q63.05 0 59.16 0.14L59.16 0.14Q55.22 0 54.94-4.27L54.94-4.27Q55.17-8.72 59.16-8.81L59.16-8.81Q63.05-8.67 63.33-4.27ZM64.88-8.58L66.05-8.58L66.05 0L64.88 0L64.88-8.58ZM69.42-8.58L73.73-1.64L73.73-8.58L74.86-8.58L74.86 0L73.55 0L69.19-6.94L69.14-6.94L69.14 0L68.02 0L68.02-8.58L69.42-8.58ZM78.84-7.59L75.94-7.59L75.94-8.58L82.88-8.58L82.88-7.59L79.97-7.59L79.97 0L78.84 0L78.84-7.59ZM88.55-1.03L93.70-1.03L93.70 0L87.38 0L87.38-8.58L93.61-8.58L93.61-7.59L88.55-7.59L88.55-4.92L93.23-4.92L93.23-3.89L88.55-3.89L88.55-1.03ZM98.72 0L95.25 0L95.25-8.58L98.77-8.58Q102.23-8.39 102.38-4.41L102.38-4.41Q102.19-0.09 98.72 0L98.72 0ZM98.58-7.64L96.42-7.64L96.42-0.98L98.67-0.98Q101.11-1.13 101.20-4.31L101.20-4.31Q101.16-7.55 98.58-7.64L98.58-7.64ZM109.50-3.19L109.50-8.58L110.67-8.58L110.67-3.05Q110.53 0.05 107.16 0.14L107.16 0.14Q104.02 0.05 103.88-2.86L103.88-2.86L103.88-8.58L105.05-8.58L105.05-3.19Q105.09-0.84 107.20-0.80L107.20-0.80Q109.50-0.84 109.50-3.19L109.50-3.19ZM119.63-6.05L119.63-6.05L118.50-6.05Q118.08-7.78 116.11-7.83L116.11-7.83Q113.39-7.69 113.30-4.36L113.30-4.36Q113.30-0.80 116.16-0.80L116.16-0.80Q118.13-0.84 118.59-3.19L118.59-3.19L119.72-3.19Q119.20 0.05 115.92 0.14L115.92 0.14Q112.17 0 112.08-4.31L112.08-4.31Q112.27-8.63 116.11-8.81L116.11-8.81Q119.16-8.72 119.63-6.05ZM126.75 0L125.91-2.48L122.44-2.48L121.55 0L120.38 0L123.61-8.58L124.92-8.58L128.02 0L126.75 0ZM124.17-7.31L122.81-3.52L125.48-3.52L124.22-7.31L124.17-7.31ZM131.25-7.59L128.34-7.59L128.34-8.58L135.28-8.58L135.28-7.59L132.38-7.59L132.38 0L131.25 0L131.25-7.59ZM136.50-8.58L137.67-8.58L137.67 0L136.50 0L136.50-8.58ZM146.44-4.27L146.44-4.27Q146.25-7.64 143.44-7.83L143.44-7.83Q140.58-7.69 140.44-4.27L140.44-4.27Q140.58-0.94 143.44-0.80L143.44-0.80Q146.25-0.98 146.44-4.27ZM147.61-4.27L147.61-4.27Q147.33 0 143.44 0.14L143.44 0.14Q139.50 0 139.22-4.27L139.22-4.27Q139.45-8.72 143.44-8.81L143.44-8.81Q147.33-8.67 147.61-4.27ZM150.38-8.58L154.69-1.64L154.69-8.58L155.81-8.58L155.81 0L154.50 0L150.14-6.94L150.09-6.94L150.09 0L148.97 0L148.97-8.58L150.38-8.58Z" transform="translate(-0.890625, 8.8125)"></path></g></g></g></g></g><defs v-gra="od"></defs></svg>